<svg version="1.1" id="Layer_1" xmlns="http://www.w3.org/2000/svg" xmlns:xlink="http://www.w3.org/1999/xlink" x="0px" y="0px"
	 viewBox="0 0 100 100" style="enable-background:new 0 0 100 100;" xml:space="preserve">
<style type="text/css">
	.st0{fill:#474198;}
	.st1{fill:#8D8DFF;}
	.st2{fill:#6356E5;}
	.st3{fill:#FFFFFF;}
</style>
<g>
	<path class="st0" d="M44.6,2.2L2.2,44.6c-3,3-3,7.8,0,10.8l42.4,42.4c3,3,7.8,3,10.8,0l42.4-42.4c3-3,3-7.8,0-10.8L55.4,2.2
		C52.4-0.7,47.6-0.7,44.6,2.2z"/>
	<path class="st1" d="M3.8,36.7l22.9,55.3c1.6,3.9,6.1,5.8,10,4.1l55.3-22.9c3.9-1.6,5.8-6.1,4.1-10L73.3,7.9
		c-1.6-3.9-6.1-5.8-10-4.1L7.9,26.7C4,28.3,2.2,32.8,3.8,36.7z"/>
	<path class="st2" d="M12.4,20.1v59.9c0,4.2,3.4,7.6,7.6,7.6h59.9c4.2,0,7.6-3.4,7.6-7.6V20.1c0-4.2-3.4-7.6-7.6-7.6H20.1
		C15.8,12.4,12.4,15.8,12.4,20.1z"/>
	<path class="st3" d="M72.5,37.9l-4.6-4.6c-0.7-0.7-1.8-0.7-2.5,0L42.9,55.8l-8.4-8.4c-0.7-0.7-1.8-0.7-2.5,0L27.5,52
		c-0.7,0.7-0.7,1.8,0,2.5l9.6,9.6l0,0l4.6,4.6c0.7,0.7,1.8,0.7,2.5,0l28.3-28.3C73.2,39.7,73.2,38.6,72.5,37.9z"/>
</g>
</svg>
